<mxfile host="app.diagrams.net" modified="2023-02-23T15:00:10.929Z" agent="5.0 (Windows)" etag="zhO28N1A375-kYN7vLoH" version="20.8.20" type="github">
  <diagram name="Page-1" id="xnDtV1KqofVfS2W3FYpm">
    <mxGraphModel dx="1050" dy="525" grid="1" gridSize="10" guides="1" tooltips="1" connect="1" arrows="1" fold="1" page="1" pageScale="1" pageWidth="1169" pageHeight="1654" math="0" shadow="0">
      <root>
        <mxCell id="0" />
        <mxCell id="1" parent="0" />
        <mxCell id="504v0FyW9OxJBydBdECm-1" value="" style="html=1;shadow=0;dashed=0;align=center;verticalAlign=middle;shape=mxgraph.arrows2.uTurnArrow;dy=11;arrowHead=43;dx2=22.25;direction=south;rotation=-30;labelBackgroundColor=none;fillColor=#000080;" vertex="1" parent="1">
          <mxGeometry x="460" y="160" width="100" height="60" as="geometry" />
        </mxCell>
        <mxCell id="504v0FyW9OxJBydBdECm-3" value="" style="sketch=0;html=1;aspect=fixed;strokeColor=none;shadow=0;align=center;verticalAlign=top;fillColor=#000000;shape=mxgraph.gcp2.arrow_cycle" vertex="1" parent="1">
          <mxGeometry x="480" y="220" width="210.53" height="200" as="geometry" />
        </mxCell>
        <mxCell id="504v0FyW9OxJBydBdECm-4" value="Sprint" style="text;html=1;strokeColor=none;fillColor=none;align=center;verticalAlign=middle;whiteSpace=wrap;rounded=0;fontStyle=1;fontSize=21;" vertex="1" parent="1">
          <mxGeometry x="520" y="282.5" width="135" height="75" as="geometry" />
        </mxCell>
      </root>
    </mxGraphModel>
  </diagram>
</mxfile>
